<svg width="50" height="27" viewBox="0 0 50 27" fill="none" xmlns="http://www.w3.org/2000/svg">
<path d="M2.05497 1.1377C2.73192 0.479264 3.64994 0.109375 4.60715 0.109375C5.56435 0.109375 6.48237 0.479264 7.15933 1.1377L25.0282 18.5231L42.897 1.1377C43.5779 0.497924 44.4897 0.143913 45.4362 0.151915C46.3827 0.159917 47.2881 0.529292 47.9574 1.18048C48.6267 1.83167 49.0064 2.71257 49.0146 3.63346C49.0228 4.55435 48.659 5.44153 48.0014 6.10394L27.5804 25.9724C26.9034 26.6309 25.9854 27.0008 25.0282 27.0008C24.071 27.0008 23.153 26.6309 22.476 25.9724L2.05497 6.10394C1.37822 5.44531 0.998047 4.55213 0.998047 3.62082C0.998047 2.68951 1.37822 1.79633 2.05497 1.1377Z" fill="black"/>
</svg>
