<svg width="24" height="25" viewBox="0 0 24 25" fill="none" xmlns="http://www.w3.org/2000/svg">
<path fill-rule="evenodd" clip-rule="evenodd" d="M3.46447 3.96447C2 5.42893 2 7.78595 2 12.5C2 17.214 2 19.5711 3.46447 21.0355C4.92893 22.5 7.28595 22.5 12 22.5C16.714 22.5 19.0711 22.5 20.5355 21.0355C22 19.5711 22 17.214 22 12.5C22 7.78595 22 5.42893 20.5355 3.96447C19.0711 2.5 16.714 2.5 12 2.5C7.28595 2.5 4.92893 2.5 3.46447 3.96447ZM8.46967 10.4697C8.76256 10.1768 9.23744 10.1768 9.53033 10.4697L12 12.9393L14.4697 10.4697C14.7626 10.1768 15.2374 10.1768 15.5303 10.4697C15.8232 10.7626 15.8232 11.2374 15.5303 11.5303L12.5303 14.5303C12.3897 14.671 12.1989 14.75 12 14.75C11.8011 14.75 11.6103 14.671 11.4697 14.5303L8.46967 11.5303C8.17678 11.2374 8.17678 10.7626 8.46967 10.4697Z" fill="#ED2A7B"/>
</svg>
