<svg width="64" height="47" viewBox="0 0 64 47" fill="none" xmlns="http://www.w3.org/2000/svg">
    <path d="M22.0681 11.445C22.0681 12.6238 21.5987 13.7544 20.7633 14.588C19.9278 15.4216 18.7947 15.8899 17.6131 15.8899C16.4316 15.8899 15.2985 15.4216 14.463 14.588C13.6276 13.7544 13.1582 12.6238 13.1582 11.445C13.1582 10.2661 13.6276 9.13549 14.463 8.3019C15.2985 7.46831 16.4316 7 17.6131 7C18.7947 7 19.9278 7.46831 20.7633 8.3019C21.5987 9.13549 22.0681 10.2661 22.0681 11.445ZM22.0681 23.2982C22.0681 24.4771 21.5987 25.6077 20.7633 26.4413C19.9278 27.2749 18.7947 27.7432 17.6131 27.7432C16.4316 27.7432 15.2985 27.2749 14.463 26.4413C13.6276 25.6077 13.1582 24.4771 13.1582 23.2982C13.1582 22.1193 13.6276 20.9887 14.463 20.1551C15.2985 19.3215 16.4316 18.8532 17.6131 18.8532C18.7947 18.8532 19.9278 19.3215 20.7633 20.1551C21.5987 20.9887 22.0681 22.1193 22.0681 23.2982ZM22.0681 35.1514C22.0681 36.3303 21.5987 37.4609 20.7633 38.2945C19.9278 39.1281 18.7947 39.5964 17.6131 39.5964C16.4316 39.5964 15.2985 39.1281 14.463 38.2945C13.6276 37.4609 13.1582 36.3303 13.1582 35.1514C13.1582 33.9726 13.6276 32.842 14.463 32.0084C15.2985 31.1748 16.4316 30.7065 17.6131 30.7065C18.7947 30.7065 19.9278 31.1748 20.7633 32.0084C21.5987 32.842 22.0681 33.9726 22.0681 35.1514Z" fill="black"/>
    <path fill-rule="evenodd" clip-rule="evenodd" d="M24.2598 11.4438C24.2598 10.6579 24.5727 9.90413 25.1296 9.3484C25.6866 8.79267 26.442 8.48047 27.2297 8.48047H48.0195C48.8071 8.48047 49.5626 8.79267 50.1195 9.3484C50.6765 9.90413 50.9894 10.6579 50.9894 11.4438C50.9894 12.2297 50.6765 12.9834 50.1195 13.5392C49.5626 14.0949 48.8071 14.4071 48.0195 14.4071H27.2297C26.442 14.4071 25.6866 14.0949 25.1296 13.5392C24.5727 12.9834 24.2598 12.2297 24.2598 11.4438ZM24.2598 23.297C24.2598 22.5111 24.5727 21.7574 25.1296 21.2016C25.6866 20.6459 26.442 20.3337 27.2297 20.3337H48.0195C48.8071 20.3337 49.5626 20.6459 50.1195 21.2016C50.6765 21.7574 50.9894 22.5111 50.9894 23.297C50.9894 24.0829 50.6765 24.8367 50.1195 25.3924C49.5626 25.9481 48.8071 26.2603 48.0195 26.2603H27.2297C26.442 26.2603 25.6866 25.9481 25.1296 25.3924C24.5727 24.8367 24.2598 24.0829 24.2598 23.297ZM24.2598 35.1503C24.2598 34.3643 24.5727 33.6106 25.1296 33.0549C25.6866 32.4992 26.442 32.187 27.2297 32.187H48.0195C48.8071 32.187 49.5626 32.4992 50.1195 33.0549C50.6765 33.6106 50.9894 34.3643 50.9894 35.1503C50.9894 35.9362 50.6765 36.6899 50.1195 37.2456C49.5626 37.8014 48.8071 38.1136 48.0195 38.1136H27.2297C26.442 38.1136 25.6866 37.8014 25.1296 37.2456C24.5727 36.6899 24.2598 35.9362 24.2598 35.1503Z" fill="black"/>
    <rect x="0.5" y="0.5" width="63" height="46" rx="9.5" stroke="black"/>
</svg>
