<svg width="313" height="324" viewBox="0 0 313 324" fill="none" xmlns="http://www.w3.org/2000/svg">
<path fill-rule="evenodd" clip-rule="evenodd" d="M290.238 260.352C348.743 208.152 273.209 178.367 287.13 134.255C301.051 90.143 336.287 23.8036 204.815 35.4913C73.3426 47.179 -35.8065 179.965 11.0638 242.459C57.9342 304.953 231.734 312.552 290.238 260.352Z" fill="#E42C80"/>
<path fill-rule="evenodd" clip-rule="evenodd" d="M181.703 153.332C185.501 155.176 189.299 157.021 193.097 158.865C199.08 161.77 205.166 164.746 209.99 169.314C214.814 173.883 218.265 180.382 217.542 186.974C216.692 194.723 210.547 200.694 204.776 205.957C197.253 212.818 189.731 219.679 182.208 226.541C178.912 229.548 175.302 233.829 177.077 237.915C181.688 248.528 185.865 260.601 181.672 271.385C180.488 274.429 178.037 277.572 174.764 277.423C172.328 277.311 170.396 275.403 168.829 273.541C162.602 266.141 157.98 257.406 155.373 248.105C152.035 236.194 152.442 222.236 160.567 212.889C166.881 205.625 177.759 200.74 178.431 191.154C166.131 180.747 148.338 177.2 132.966 182.092C117.595 186.984 105.159 200.15 101.19 215.734C99.0284 224.221 103.867 232.958 109.818 239.4C115.769 245.843 123.069 251.184 127.648 258.658C136.857 273.688 132.837 292.934 128.528 310.012C127.032 315.938 118.009 316.927 113.517 312.767C109.024 308.607 108.251 301.811 108.727 295.718C109.203 289.626 110.631 283.468 109.433 277.475C106.343 262.007 88.1711 254.945 79.2662 241.907C72.5177 232.025 71.588 219.096 74.0866 207.405C76.5857 195.715 82.1734 184.944 87.7019 174.337C77.414 158.644 73.0953 139.166 75.7901 120.615C77.1496 111.255 64.7849 104.053 66.0727 94.6831C67.1002 87.2046 75.9057 83.8277 83.3485 82.4208C97.515 79.7429 112.001 78.7531 126.402 79.479C129.622 79.641 131.038 74.9805 129.426 72.1991C127.813 69.4173 124.665 67.9854 122.057 66.0965C116.803 62.2913 113.503 56.2921 111.682 50.0799C109.347 42.1078 109.342 33.0557 113.68 25.9638C114.764 24.1918 116.628 21.565 119.464 24.1105C120.315 19.6675 129.349 15.3971 135.124 17.7824C138.585 19.2119 142.274 16.2802 144.474 13.2576C146.674 10.2351 148.802 6.58526 152.457 5.76512C159.003 4.29652 163.196 13.0243 162.442 19.6675C161.688 26.3107 158.756 33.3288 161.634 39.3677C162.729 41.6636 164.625 43.6518 164.988 46.1677C165.304 48.3505 164.739 47.4993 163.509 52.5245C162.281 57.5493 159.32 59.1636 158.1 61.9434C156.221 66.2223 156.503 69.9807 152.578 73.7681C151.917 74.4053 153.262 75.8658 152.787 76.9478C162.455 77.0858 169.8 85.1191 177.283 91.2202C186.588 98.8077 197.972 104.116 209.953 105.145C221.933 106.175 234.469 102.673 243.414 94.6652C246.915 91.5309 255.268 95.626 255.878 90.9751C255.995 89.7704 255.674 89.2513 254.529 88.9549C253.936 88.8015 252.535 89.1204 252.1 88.5626C250.825 86.928 258.252 84.1094 257.939 86.3544C257.858 86.9295 257.52 87.3543 257.563 87.7267C257.688 88.8097 258.306 89.1439 259.261 89.3349C261.274 89.4602 264.158 88.0848 265.362 86.3544C266.168 85.1955 265.854 84.8878 265.221 84.8369C264.187 84.7528 262.303 85.3544 263.074 84.0386C264.024 82.4208 266.471 80.8865 268.798 82.295C269.301 82.5991 269.124 83.1895 268.866 83.7692C268.394 84.8333 267.648 85.8618 270.32 85.0253C274.45 83.733 274.686 83.975 275.753 84.2908C276.82 84.6066 278.387 86.4817 279.39 88.2336C281.453 91.8376 283.57 95.6178 283.763 99.7628C283.956 103.908 281.556 108.491 277.475 109.32C277.439 110.526 278.031 111.663 278.929 112.462C279.908 113.333 282.424 112.802 282.001 113.581C280.627 116.11 277.283 116.758 274.651 115.873C273.928 115.63 275.596 114.386 275.753 113.523C276.006 112.142 275.719 110.655 274.874 109.527C272.493 110.531 270.112 111.535 267.73 112.54C268.422 113.42 268.107 114.465 268.798 115.345C269.451 116.177 271.126 115.966 271.406 117.146C271.711 118.429 269.239 118.968 267.961 119.087C266.561 119.219 264.382 119.363 263.73 118.429C262.988 117.368 265.311 117.028 265.419 115.918C265.536 114.707 265.091 113.412 264.024 112.825C261.979 111.702 259.045 113.77 259.426 116.066C260.388 121.849 257.983 128.067 253.375 131.712C248.768 135.357 242.144 136.28 236.709 134.036C231.795 132.006 226.352 134.617 221.267 136.173C209.74 139.701 196.585 137.451 186.898 130.294C186.339 138.294 184.801 146.96 179.669 152.859C180.502 153.332 180.074 153.332 181.703 153.332Z" fill="white"/>
<path d="M130.427 66.7256C131.974 66.7256 133.228 65.4754 133.228 63.9331C133.228 62.3909 131.974 61.1406 130.427 61.1406C128.879 61.1406 127.625 62.3909 127.625 63.9331C127.625 65.4754 128.879 66.7256 130.427 66.7256Z" fill="#F7941E"/>
<path d="M150.528 61.1269C152.076 61.1269 153.33 59.8725 153.33 58.3251C153.33 56.7778 152.076 55.5234 150.528 55.5234C148.981 55.5234 147.727 56.7778 147.727 58.3251C147.727 59.8725 148.981 61.1269 150.528 61.1269Z" fill="#F7941E"/>
<path fill-rule="evenodd" clip-rule="evenodd" d="M166.889 183.121C165.628 182.556 164.365 181.99 163.094 181.439C153.789 177.402 142.629 174.499 133.85 179.571C132.509 171.037 141.691 164.519 150.141 162.589C152.459 162.059 154.85 161.684 157.242 161.308C163.57 160.314 169.9 159.32 174.868 155.473C182.243 149.761 184.21 139.58 184.859 130.294C194.546 137.451 207.701 139.701 219.228 136.173C220.109 135.904 220.999 135.603 221.896 135.3C226.181 133.852 230.607 132.357 234.67 134.036C240.105 136.28 246.729 135.357 251.336 131.712C255.944 128.067 258.349 121.849 257.387 116.066C257.005 113.77 259.94 111.702 261.985 112.825C263.052 113.412 263.497 114.707 263.38 115.918C263.332 116.415 262.84 116.758 262.377 117.08C261.807 117.477 261.281 117.843 261.69 118.429C262.343 119.363 264.522 119.219 265.922 119.087C267.2 118.968 269.672 118.429 269.367 117.146C269.206 116.47 268.588 116.251 267.966 116.03C267.503 115.866 267.038 115.7 266.759 115.345C266.414 114.905 266.319 114.424 266.225 113.943C266.131 113.461 266.037 112.98 265.691 112.54L272.835 109.527C273.68 110.655 273.967 112.142 273.714 113.523C273.646 113.894 273.299 114.336 272.983 114.738C272.564 115.271 272.199 115.735 272.611 115.873C275.244 116.758 278.588 116.11 279.962 113.581C280.177 113.185 279.632 113.128 278.915 113.053C278.223 112.98 277.371 112.89 276.89 112.462C275.992 111.663 275.4 110.526 275.436 109.32C279.517 108.491 281.917 103.908 281.724 99.7628C281.531 95.6178 279.414 91.8376 277.35 88.2336C276.348 86.4817 274.781 84.6066 273.714 84.2908C273.648 84.2714 273.585 84.2521 273.524 84.2332C272.603 83.951 272.154 83.8135 268.281 85.0253C265.882 85.7762 266.237 85.0243 266.677 84.0931C266.727 83.9867 266.779 83.8782 266.827 83.7692C267.085 83.1895 267.262 82.5991 266.759 82.295C264.432 80.8865 261.985 82.4208 261.035 84.0386C260.468 85.005 261.334 84.9372 262.244 84.8664C262.573 84.8404 262.907 84.8145 263.182 84.8369C263.815 84.8878 264.129 85.1955 263.323 86.3544C262.119 88.0848 259.235 89.4602 257.222 89.3349C256.267 89.1439 255.649 88.8097 255.524 87.7267C255.501 87.5285 255.586 87.3156 255.683 87.0736C255.768 86.8602 255.862 86.6238 255.9 86.3544C256.213 84.1094 248.786 86.928 250.061 88.5626C250.345 88.9263 251.038 88.9177 251.651 88.9095C251.979 88.9054 252.284 88.9019 252.49 88.9549C253.635 89.2513 253.956 89.7699 253.839 90.9751C253.506 93.5145 250.864 93.4463 247.964 93.3714C245.553 93.3092 242.964 93.2425 241.374 94.6652C232.43 102.673 219.894 106.175 207.913 105.145C195.933 104.116 184.549 98.8077 175.244 91.2202C173.959 90.1728 172.679 89.0685 171.39 87.9575C165.171 82.594 158.757 77.0624 150.748 76.9478C150.983 76.4124 150.773 75.7843 150.58 75.2097C150.383 74.6224 150.205 74.09 150.539 73.7681C152.606 71.7733 153.662 67.8881 154.577 64.523C155.399 61.4986 156.107 58.8951 157.331 58.4626C159.782 57.5971 160.501 55.4363 161.33 52.9443C161.377 52.8052 161.423 52.6651 161.47 52.5245C161.754 51.681 162.006 50.9994 162.221 50.4192C162.879 48.6439 163.187 47.8126 162.949 46.1677C162.712 44.5274 161.824 43.1113 160.93 41.688C160.454 40.928 159.976 40.1665 159.595 39.3677C157.501 34.9741 158.482 30.063 159.463 25.1544C159.83 23.3158 160.197 21.4777 160.403 19.6675C161.157 13.0243 156.964 4.29652 150.418 5.76512C147.228 6.48078 145.202 9.35085 143.276 12.0788C142.994 12.4771 142.715 12.8725 142.435 13.2576C140.235 16.2802 136.546 19.2119 133.085 17.7824C127.309 15.3971 118.276 19.6675 117.425 24.1105C114.589 21.565 112.725 24.1918 111.641 25.9638C107.303 33.0557 107.308 42.1078 109.643 50.0799C111.463 56.2921 114.764 62.2913 120.018 66.0965C120.686 66.5804 121.389 67.0343 122.093 67.4882C124.137 68.8075 126.187 70.1299 127.387 72.1991C128.999 74.9805 127.582 79.641 124.363 79.479C109.962 78.7531 95.4759 79.7429 81.3094 82.4208C73.8666 83.8277 65.0611 87.2046 64.0336 94.6831C63.3913 99.3579 66.1471 103.493 68.9015 107.626C71.6675 111.777 74.432 115.925 73.751 120.615C71.0562 139.166 75.3749 158.644 85.6628 174.337C80.1343 184.944 74.5466 195.715 72.0475 207.405C69.5489 219.096 70.4786 232.025 77.2271 241.907C80.744 247.056 85.7066 251.273 90.6142 255.444C98.1334 261.834 105.524 268.115 107.394 277.475C108.273 281.874 107.738 286.363 107.202 290.849C107.008 292.474 106.815 294.098 106.688 295.718C106.212 301.811 106.985 308.607 111.478 312.767C114.043 315.142 118.085 315.839 121.36 314.896C121.332 315.397 121.303 315.864 121.275 316.302C121.126 318.692 121.028 320.259 121.449 322.117C121.558 322.601 121.737 323.152 122.202 323.328C123.128 323.679 123.746 322.266 123.683 321.306C123.446 317.672 122.991 315.621 122.554 314.463C124.46 313.616 125.954 312.129 126.489 310.012C130.798 292.934 134.818 273.688 125.609 258.658C122.567 253.693 118.324 249.668 114.073 245.637C111.925 243.601 109.776 241.563 107.778 239.4C101.828 232.958 96.9893 224.221 99.1507 215.734C103.119 200.15 115.555 186.984 130.927 182.092C146.299 177.2 164.092 180.747 176.392 191.154C175.934 197.683 170.741 202.032 165.481 206.436C163.018 208.498 160.541 210.572 158.528 212.889C150.403 222.236 149.996 236.194 153.334 248.105C155.941 257.406 160.563 266.141 166.79 273.541C168.357 275.403 170.289 277.311 172.725 277.423C175.998 277.572 178.449 274.429 179.633 271.385C183.825 260.601 179.649 248.528 175.038 237.915C173.262 233.829 176.873 229.548 180.169 226.541L202.736 205.957C208.507 200.694 214.653 194.723 215.503 186.974C216.226 180.382 212.775 173.883 207.951 169.314C203.127 164.746 197.041 161.77 191.058 158.865L179.664 153.332C183.42 158.142 189.089 160.843 194.67 163.501C195.748 164.015 196.823 164.527 197.881 165.052C204.411 168.297 211.116 173.033 212.611 180.15C214.448 188.893 207.773 196.918 201.585 203.382C193.75 211.566 185.845 219.81 176.536 226.284C173.369 228.487 169.857 230.537 165.997 230.675C162.137 230.813 157.938 228.402 157.331 224.601C156.784 221.169 159.157 218.024 161.388 215.354L177.887 195.606C180.394 192.604 183.698 191.823 187.627 190.894C189.01 190.567 190.47 190.222 191.999 189.755C182.741 190.226 174.858 186.693 166.889 183.121ZM100.116 130.046C100.781 136.023 102.629 142.008 106.377 146.722C110.125 151.437 115.964 154.719 121.994 154.458C124.014 154.371 124.661 151.377 123.461 149.756C122.422 148.35 120.702 147.71 119.035 147.089C118.779 146.994 118.526 146.9 118.276 146.803C116.392 146.075 114.383 144.855 114.043 142.87C119.359 146.991 127.297 147.374 132.988 143.783C134.969 149.447 141.54 152.849 147.486 151.913C153.433 150.978 158.404 146.242 160.376 140.575C160.414 140.466 160.451 140.356 160.488 140.247C160.788 139.365 161.096 138.458 161.777 137.833C162.411 137.251 163.276 137.004 164.108 136.775L180.368 132.295C180.771 132.184 181.229 132.079 181.587 132.295C181.969 132.526 182.074 133.023 182.13 133.464C183.255 142.352 178.247 151.688 170.206 155.695C165.894 157.844 160.967 158.546 156.082 159.242C149.708 160.15 143.406 161.048 138.637 165.135C136.043 167.359 134.242 170.28 132.438 173.208C131.576 174.606 130.714 176.006 129.763 177.331C123.935 185.461 113.231 190.966 103.724 187.789C98.2674 185.966 94.0261 181.652 90.5403 177.089C80.0461 163.354 74.5064 145.94 75.1447 128.689C75.2603 125.559 75.5828 122.39 76.7187 119.47C83.9232 127.811 92.2534 135.188 101.415 141.336C101.095 139.68 99.9434 138.321 98.7972 137.08C95.5182 133.53 91.8994 130.205 88.2847 126.883C79.878 119.16 71.4933 111.456 67.4558 100.982C66.5679 98.6798 65.9118 96.1665 66.4584 93.7611C67.6988 88.3054 74.1335 86.0345 79.6366 84.9265C92.853 82.2669 106.341 80.9491 119.825 81.0011C120.54 89.3227 127.49 96.7655 135.8 97.8612C144.11 98.957 152.868 93.4152 155.202 85.3931C155.271 85.1547 155.336 84.9138 155.401 84.6718C155.691 83.5939 155.984 82.5048 156.677 81.6419C157.526 80.5854 159.251 80.0658 160.242 80.9919C167.583 87.8546 175.287 94.4523 184.066 99.3604C192.846 104.268 202.82 107.434 212.878 106.99C195.699 113.235 178.139 118.441 160.328 122.568C158.966 122.884 157.279 123.091 156.404 122.005C153.302 118.154 148.243 115.957 143.3 116.313C138.357 116.669 133.668 119.568 131.154 123.824C130.244 125.364 127.973 125.171 126.245 124.689C122.651 123.687 118.953 122.145 116.829 119.087C116.47 118.571 116.16 118.016 115.849 117.461C115.243 116.376 114.638 115.295 113.68 114.52C112.326 113.424 110.552 113.157 108.795 112.892C108.307 112.819 107.82 112.745 107.343 112.654C101.92 111.62 97.1167 107.776 94.9313 102.723C100.044 99.312 106.949 100.931 112.594 103.371C113.483 103.755 114.374 104.158 115.269 104.564C120.055 106.731 124.938 108.943 130.1 108.47C134.49 108.069 138.321 105.793 142.168 103.507C145.57 101.486 148.984 99.4572 152.808 98.7099C162.619 96.7925 172.249 104.072 176.843 112.92C176.878 112.988 176.913 113.056 176.948 113.124C177.7 114.577 178.512 116.148 180.019 116.758C178.482 108.146 171.989 100.591 163.685 97.7527C155.381 94.9138 145.602 96.9056 139.082 102.764C135.036 106.399 128.889 106.656 123.609 105.32C120.635 104.567 117.801 103.389 114.965 102.21C112.765 101.296 110.565 100.381 108.297 99.6635C103.105 98.0217 97.108 97.5357 92.4862 100.409C91.0986 97.363 89.2429 94.5287 87.0025 92.0372C89.2225 104.732 100.843 115.17 113.746 116.058L106.586 118.769C104.913 119.402 103.179 120.075 101.951 121.372C99.8491 123.594 99.7773 127.011 100.116 130.046ZM96.5833 218.842C95.8875 222.336 95.5059 226.122 97.0744 229.323C97.9195 231.048 99.2694 232.465 100.597 233.859L100.688 233.954C108.672 242.34 116.172 251.183 123.138 260.427C120.045 263.387 116.602 265.984 112.903 268.147C111.872 268.749 110.76 269.334 109.565 269.313C107.785 269.281 106.338 267.94 105.086 266.679C96.3388 257.873 87.8176 248.845 79.5332 239.605C76.8991 236.667 74.2206 233.591 73.0235 229.837C71.502 225.065 72.5793 219.902 73.6654 215.013C76.6612 201.531 79.8123 187.682 87.623 176.276C92.011 184.127 100.137 189.793 109.043 191.212C102.868 199.327 98.5725 208.853 96.5833 218.842ZM152.229 68.5411C150.923 71.2634 148.718 73.6682 145.86 74.6651C142.05 75.9947 137.859 74.6646 134.128 73.1267C132.189 72.3275 130.23 71.4411 128.729 69.9807C127.455 68.7418 126.581 67.1576 125.773 65.5769C123.254 60.6541 121.173 55.5091 119.561 50.222C118.229 45.8503 117.542 40.3178 121.09 37.4223C125.141 40.521 130.591 41.2983 135.665 40.7105C140.176 40.1879 144.498 38.6938 148.796 37.2079C149.332 37.0224 149.868 36.837 150.404 36.6536C151.016 36.4443 151.741 36.2512 152.269 36.6236C152.674 36.9083 152.816 37.431 152.926 37.9118C154.558 45.0659 155.034 52.4802 154.329 59.783C154.039 62.7864 153.536 65.8194 152.229 68.5411ZM168.51 272.912C161.246 263.263 156.38 251.836 154.464 239.927C153.641 234.813 153.375 229.454 155.086 224.564C156.719 230.969 164.454 235.059 170.694 232.816C172.322 236.159 173.802 239.573 175.129 243.045C178.614 252.167 180.987 262.549 177.127 271.521C176.199 273.677 174.366 275.974 172.036 275.629C170.526 275.406 169.426 274.128 168.51 272.912ZM120.146 23.7789C121.983 20.5016 126.023 18.8366 129.777 19.1516C130.653 19.2251 131.525 19.336 132.38 19.4446C135.089 19.7888 137.623 20.1107 139.537 19.1516C142.45 17.6914 143.667 15.6614 144.906 13.5952C145.733 12.2159 146.57 10.8205 147.927 9.5676C148.786 8.77497 149.743 8.01433 150.887 7.76376C153.225 7.25135 155.47 9.02539 156.801 11.0076C159.659 15.2619 160.036 21.0522 157.754 25.6388C155.241 30.6901 150.06 33.8509 144.876 36.1116C141.144 37.7392 137.195 39.059 133.122 39.1431C129.049 39.2271 124.811 37.9419 122.002 35.0016C119.194 32.0609 118.161 27.3229 120.146 23.7789ZM108.662 289.604C108.488 288.314 108.35 286.872 109.136 285.832C112.356 286.121 115.681 284.958 118.013 282.726C117.304 281.267 115.108 281.366 113.721 282.212C113.188 282.538 112.699 282.937 112.211 283.335C111.429 283.974 110.649 284.61 109.7 284.931C108.783 284.026 108.948 282.43 109.711 281.392C110.474 280.355 111.673 279.743 112.827 279.168L120.096 275.545C118.699 274.168 116.372 274.15 114.589 274.974C112.807 275.798 111.443 277.294 110.13 278.751C108.673 276.215 109.713 272.577 112.292 271.185L121.71 266.107C122.441 265.713 123.217 265.307 124.048 265.332C125.849 265.385 126.935 267.328 127.428 269.054C128.852 274.048 128.418 279.356 127.972 284.528C127.315 292.135 126.648 299.8 124.507 307.13C123.769 309.656 122.605 312.408 120.153 313.388C117.494 314.45 114.367 312.838 112.777 310.463C111.186 308.089 110.764 305.15 110.381 302.321L108.662 289.604ZM234.209 117.146C235.229 117.022 236.112 115.848 235.615 114.953L232.114 108.643C231.653 107.812 231.181 106.945 231.119 105.997C231.058 105.05 231.533 103.996 232.44 103.703C233.738 103.283 234.932 104.534 235.683 105.669C237.266 108.06 238.647 110.585 239.805 113.206C241.179 111.382 239.678 108.862 238.306 107.036C236.935 105.209 235.734 102.409 237.45 100.898C239.144 99.4057 241.837 100.935 243.135 102.78C243.817 103.749 244.377 104.824 244.935 105.896C246.017 107.97 247.091 110.03 249.024 111.275C249.859 110.766 249.443 109.492 248.937 108.657L242.45 97.9575C241.87 97.0009 242.829 95.7034 243.939 95.5419C245.049 95.3805 246.12 95.9719 247.048 96.601C251.509 99.6273 255.061 104.259 255.9 109.571C256.738 114.883 254.462 120.785 249.784 123.466C248.369 124.277 246.793 124.783 245.191 125.093C235.439 126.982 224.766 120.761 221.639 111.366C221.161 109.928 221.045 107.964 222.403 107.283C223.438 106.764 224.689 107.38 225.551 108.152C226.797 109.267 227.687 110.694 228.577 112.121C229.435 113.496 230.293 114.872 231.47 115.971C232.22 116.671 233.189 117.27 234.209 117.146ZM132.477 127.703C133.675 127.74 134.916 127.778 135.912 128.421C137.011 129.129 137.49 130.923 136.449 131.715C136.055 132.014 135.544 132.101 135.055 132.179C130.51 132.905 125.325 133.47 121.792 130.53C120.997 130.891 120.766 131.98 121.09 132.788C121.414 133.596 122.135 134.171 122.858 134.66C126.064 136.833 129.903 138.067 133.779 138.171C131.24 140.362 127.525 141.107 124.333 140.066C123.08 139.657 121.318 139.191 120.764 140.383C123.221 142.724 126.973 142.904 130.373 142.948C124.299 145.832 116.33 143.954 112.196 138.664C111.902 138.287 111.238 138.479 111.004 138.896C110.771 139.313 110.834 139.825 110.905 140.297C111.262 142.701 111.753 145.344 113.668 146.848C114.681 147.645 115.939 147.992 117.197 148.339C117.699 148.477 118.201 148.616 118.688 148.784C120.395 149.369 122.16 150.656 122.176 152.455C116.677 152.927 111.293 149.822 107.964 145.435C104.634 141.048 103.105 135.548 102.4 130.094C102.217 128.684 102.089 127.224 102.5 125.862C103.319 123.151 106.006 121.513 108.483 120.126C110.28 119.12 112.757 118.193 114.182 119.676C118.825 124.509 125.399 127.447 132.108 127.691C132.231 127.695 132.353 127.699 132.477 127.703ZM144.272 137.447L214.653 118.034C217.717 117.188 221.345 116.449 223.798 118.466C195.932 127.046 167.709 134.476 139.227 140.729C137.676 141.069 135.466 141.001 135.195 139.442C136.132 139.477 136.128 138.431 136.124 137.325C136.12 136.236 136.116 135.089 137.008 134.858L219.025 113.513C219.521 113.384 220.15 113.298 220.454 113.709C220.949 114.377 219.937 115.123 219.134 115.345L140.912 137.014C141.622 137.986 143.109 137.767 144.272 137.447ZM223.625 131.853C218.547 135.243 212.101 136.133 206.031 135.415C199.962 134.699 194.175 132.497 188.551 130.114L222.224 120.709C223.404 120.38 224.862 120.121 225.695 121.017C232.527 128.373 244.96 129.686 253.189 123.92C252.229 128.497 248.074 132.221 243.404 132.688C240.744 132.955 238.124 132.267 235.518 131.583C234.827 131.401 234.136 131.22 233.447 131.056C230.155 130.278 226.435 129.976 223.625 131.853ZM130.571 75.5209C131.052 74.8348 132.087 74.4568 132.753 74.9657C136.661 77.9498 142.093 78.831 146.749 77.2356C148.235 76.7267 149.925 77.7806 150.539 79.2222C151.152 80.6638 150.904 82.3337 150.365 83.8043C148.725 88.2825 144.308 91.6139 139.537 91.9726C134.765 92.3312 129.897 89.6971 127.601 85.5149C126.892 84.2235 126.655 82.1997 128.023 81.6434C129.387 81.0882 129.777 79.3776 129.925 77.9166L129.929 77.8723C130.012 77.0532 130.098 76.1944 130.571 75.5209ZM260.695 111.369C260.145 111.517 259.564 111.663 259.014 111.516C258.464 111.37 257.978 110.818 258.117 110.268C263.039 109.489 267.789 107.657 271.954 104.931C273.577 103.869 275.299 102.018 274.48 100.265C273.937 99.1021 272.48 98.6549 271.194 98.7068C269.332 98.7827 267.596 99.6151 265.922 100.431L256.891 104.833C256.471 104.337 256.645 103.541 257.09 103.066C257.517 102.609 258.125 102.375 258.711 102.149L258.776 102.123C262.876 100.538 266.696 98.2362 270.009 95.354C270.979 94.5104 270.475 92.7713 269.367 92.1167C268.259 91.4621 266.867 91.591 265.601 91.8269C261.928 92.5105 258.393 93.9225 255.263 95.9561C253.723 96.9576 251.536 98.066 250.275 96.7309C253.677 93.296 258.339 91.4626 262.856 89.7225L271.597 86.3544C272.204 86.1206 272.862 85.8827 273.493 86.0436C274.352 86.2627 274.855 87.1276 275.244 87.9218C277.452 92.4264 279.077 97.2138 280.067 102.128C280.211 102.842 280.33 103.63 279.962 104.257C279.627 104.827 278.976 105.118 278.365 105.37C272.61 107.742 266.705 109.747 260.695 111.369ZM219.357 111.67C219.03 112.016 218.542 112.152 218.079 112.273L137.812 133.213C139.058 130.214 142.721 129.188 145.904 128.496C168.05 123.68 189.745 117.038 211.416 110.404C212.648 110.026 213.881 109.649 215.113 109.272C216.182 108.945 217.347 108.62 218.394 109.01C219.442 109.401 220.123 110.858 219.357 111.67ZM110.72 31.8067C111.211 30.2031 112.015 27.9867 113.273 26.8721C113.915 26.3041 114.783 25.6979 115.555 26.0718C116.041 26.3067 116.279 26.8497 116.477 27.3494C116.775 28.0967 117.2 29.0987 117.625 30.1002C118.05 31.1022 118.475 32.1042 118.772 32.8515C119.19 33.8998 119.593 35.5289 118.828 36.0581C115.555 38.3219 116.3 46.5859 117.766 50.3886C118.116 51.2964 118.416 53.1572 118.114 54.5132C117.813 55.8698 116.3 57.0898 115.063 56.4484C114.354 56.0807 113.228 54.1317 112.82 53.4257C112.783 53.361 112.752 53.307 112.728 53.2652C106.699 42.986 110.041 33.7001 110.642 32.0288C110.679 31.9249 110.706 31.8505 110.72 31.8067ZM137.17 143.111C142.53 142.122 147.835 140.835 153.051 139.26C153.132 139.236 153.213 139.211 153.294 139.187C154.918 138.695 156.566 138.196 158.261 138.204C158.048 140.877 156.558 143.353 154.514 145.096C152.471 146.84 149.912 147.902 147.29 148.506C145.302 148.964 143.207 149.17 141.231 148.661C139.256 148.152 137.414 146.837 136.663 144.947C136.394 144.27 136.451 143.244 137.17 143.111ZM143.815 127.168C140.396 127.65 136.783 127.403 133.706 125.843C133.055 125.514 133.392 124.522 133.852 123.957C136.214 121.053 139.793 119.163 143.531 118.845C147.27 118.528 151.118 119.786 153.94 122.25C154.406 122.658 154.88 123.302 154.565 123.835C154.4 124.115 154.068 124.244 153.761 124.354C150.511 125.516 147.234 126.685 143.815 127.168ZM133.283 95.5715C130.244 94.622 127.865 92.2115 126.127 89.5514C125.074 87.9391 124.212 86.2163 123.349 84.493C122.789 83.3728 122.229 82.2532 121.615 81.1626C122.742 80.9761 123.838 81.7412 124.462 82.6933C124.909 83.3734 125.179 84.1426 125.449 84.9128C125.558 85.221 125.666 85.5296 125.785 85.8322C128.033 91.5177 134.726 94.9271 140.754 93.8003C146.781 92.6735 151.669 87.3834 152.714 81.3622C152.824 80.7296 153.023 79.9466 153.655 79.8213C154.338 80.3893 154.369 81.4167 154.248 82.295C153.373 88.6701 147.573 93.4666 141.378 95.2781C138.748 96.0467 135.897 96.3886 133.283 95.5715ZM253.774 99.3884C257.571 96.4349 262.048 94.353 266.759 93.349C267.325 93.2282 268.174 93.3525 268.123 93.9266C268.106 94.108 267.988 94.2623 267.871 94.4024C265.531 97.2153 262.106 98.8612 258.79 100.423C257.862 100.861 256.883 101.308 255.857 101.245C254.832 101.182 253.772 100.412 253.774 99.3884ZM270.209 100.804C270.697 100.649 271.232 100.503 271.711 100.682C272.191 100.862 272.508 101.518 272.17 101.902C269.263 105.209 264.912 106.841 260.668 108.043C259.558 108.357 257.926 108.349 257.736 107.215C261.497 104.407 265.733 102.23 270.209 100.804ZM156.026 52.3483C156.271 50.8348 156.565 49.0265 156.565 47.8569C156.565 46.2502 156.809 44.285 158.313 43.7129C159.754 43.1643 161.383 44.4801 161.66 45.9925C161.938 47.5049 160.224 53.6106 159.372 54.8932C158.983 55.4791 158.531 56.0633 157.891 56.3578C157.25 56.6527 156.379 56.5569 155.987 55.9732C155.783 55.6691 155.737 55.2896 155.702 54.9253C155.667 54.5606 155.832 53.5469 156.026 52.3483ZM156.061 33.3288C156.135 33.4363 156.168 33.5667 156.198 33.6945C156.823 36.3358 157.065 39.0667 156.915 41.7762C156.199 42.0971 155.606 41.1445 155.395 40.3906L154.495 37.1656C154.141 35.8961 153.855 34.3425 154.801 33.422C155.144 33.0878 155.786 32.936 156.061 33.3288ZM118.163 62.0677C117.232 61.4268 116.477 60.9072 116.477 59.322C116.477 57.4464 118.512 55.6181 118.955 55.9732C120.567 57.264 123.464 63.6646 123.609 65.7201C122.396 65.2264 121.502 64.5535 119.87 63.3243C119.515 63.0569 119.124 62.7635 118.688 62.439C118.509 62.3066 118.333 62.1853 118.163 62.0677ZM128.741 135.193L132.028 134.5C132.439 134.414 132.937 134.354 133.211 134.67C133.74 135.279 132.699 136.047 131.891 136.062C130.787 136.083 129.678 135.777 128.741 135.193ZM228.53 105.097C229.125 105.164 229.627 105.92 229.236 106.372L229.2 106.413C228.686 106.804 228.095 107.216 227.456 107.125C226.816 107.032 226.365 106.099 226.895 105.73C227.385 105.388 227.935 105.03 228.53 105.097ZM233.26 114.89L232.512 114.781L232.44 114.774L230.857 112.348C232.245 111.9 233.792 113.537 233.26 114.89ZM229.783 110.511C229.175 110.54 228.687 109.785 228.965 109.245C229.244 108.706 230.145 108.663 230.474 109.172C230.804 109.683 230.391 110.482 229.783 110.511ZM146.807 31.3793L141.092 34.0756C136.726 36.1351 131.242 35.6017 127.359 32.7389C126.811 32.6125 126.335 33.2651 126.428 33.8183C126.521 34.371 126.972 34.7892 127.424 35.1234C130.555 37.4356 134.836 37.7254 138.612 36.7667C142.389 35.8085 145.776 33.7455 149.057 31.6503C148.82 30.8205 147.59 31.01 146.807 31.3793ZM141.434 43.8876C140.965 44.3058 140.152 43.7379 140.16 43.1103C140.167 42.4822 140.678 41.9779 141.205 41.6335C143.414 40.1894 146.581 40.4135 148.563 42.1541C148.126 42.8709 147.103 42.7048 146.242 42.5647C146.175 42.5535 146.108 42.5428 146.043 42.5326C144.407 42.2764 142.668 42.7878 141.434 43.8876ZM130.851 46.2594C131.601 46.0888 132.394 45.5172 132.323 44.7541C132.263 44.1113 131.613 43.6844 130.989 43.5112C129.517 43.1032 127.826 43.6334 126.854 44.8086C125.882 45.9838 125.683 47.7392 126.366 49.1008C126.696 48.8074 126.964 48.4468 127.231 48.0871C127.627 47.5543 128.02 47.0255 128.604 46.7296C129.045 46.5054 129.541 46.4458 130.038 46.3857C130.311 46.3526 130.585 46.32 130.851 46.2594ZM145.774 54.7251C146.68 54.7124 147.292 53.7787 147.52 52.904C147.989 51.1053 147.512 49.0896 146.286 47.6888C145.731 47.0546 144.786 46.5268 144.08 46.9884C143.862 47.131 143.705 47.3505 143.578 47.5782C142.693 49.1727 143.136 51.1665 143.825 52.8551C144.186 53.742 144.812 54.7389 145.774 54.7251ZM134.309 54.7287L134.039 51.9239C133.936 50.8567 133.707 49.6016 132.731 49.1503C131.397 48.5334 129.988 50.0111 129.639 51.4339C129.263 52.9621 129.48 54.6268 130.234 56.0093C130.918 57.263 132.621 58.3134 133.71 57.3852C134.43 56.7699 134.4 55.6701 134.309 54.7287ZM132.056 264.961C139.573 264.737 147.091 264.518 154.608 264.301C155.434 264.277 156.321 264.27 157.006 264.73C157.642 265.156 157.99 265.971 157.857 266.723L135.788 267.137C134.968 267.152 134.12 267.162 133.366 266.841C132.612 266.521 131.975 265.774 132.056 264.961ZM139.778 63.8062C138.973 63.577 139.352 62.3855 139.731 61.6408C140.955 59.2344 140.266 56.2834 139.04 53.878L139.009 53.8189C138.737 53.2861 138.447 52.7166 138.543 52.1297C138.644 51.5215 139.413 51.0152 139.895 51.4033C140.039 51.52 140.127 51.6906 140.21 51.8567C141.131 53.6834 142.034 55.5611 142.333 57.5829C142.633 59.6047 142.247 61.8242 140.855 63.3259C140.574 63.63 140.177 63.9198 139.778 63.8062ZM140.98 71.4697C144.753 70.867 147.78 67.206 147.65 63.4002C147.643 63.1741 147.622 62.9382 147.506 62.7441C147.178 62.1991 146.287 62.3264 145.866 62.8037C145.52 63.196 145.389 63.7166 145.259 64.2301C145.231 64.3406 145.204 64.4506 145.174 64.5591C144.669 66.3909 143.414 68.0052 141.76 68.9502C141.68 68.996 141.598 69.0414 141.515 69.0867C141.032 69.3526 140.535 69.6261 140.281 70.1045C139.985 70.6643 140.353 71.5695 140.98 71.4697ZM164.019 300.653C164.18 305.173 164.684 319.514 164.095 322.117C163.986 322.601 163.808 323.152 163.343 323.328C162.416 323.679 161.873 322.293 161.862 321.306C161.768 313.305 161.675 303.903 161.582 294.501V294.5C161.489 285.098 161.395 275.696 161.302 267.695C162.838 267.695 163.343 273.094 163.343 276.581C163.343 288.296 164.019 300.653 164.019 300.653ZM111.173 201.281C110.948 201.15 110.686 201.02 110.418 200.885C109.348 200.35 108.171 199.761 108.791 198.932C125.167 199.639 141.581 199.475 157.94 198.441C162.573 198.149 167.799 197.473 170.553 193.749C170.663 193.6 170.769 193.446 170.876 193.292C171.242 192.761 171.61 192.228 172.149 191.883C172.844 191.439 173.956 191.496 174.304 192.242C173.813 196.234 170.058 199.562 166.022 199.581C164.256 199.59 163.657 201.887 163.434 203.633C163.209 205.378 162.001 207.614 160.344 207.007C160.762 205.576 161.033 204.102 161.15 202.615C161.19 202.117 161.179 201.539 160.793 201.221C160.492 200.974 160.065 200.973 159.676 200.984L116.453 202.213C116.179 202.22 115.877 202.239 115.681 202.431C115.442 202.664 115.464 203.046 115.504 203.378L118.571 229.438C118.638 230.011 118.872 230.744 119.452 230.747L143.954 230.881C145.257 230.888 147.11 231.88 146.315 232.908C145.989 233.328 145.378 233.367 144.845 233.369L119.908 233.47C118.855 233.474 118.558 234.9 118.597 235.949L118.993 246.672C115.998 244.545 115.792 240.276 115.771 236.611C115.71 225.932 114.753 215.258 112.911 204.737C112.681 203.424 112.328 201.952 111.173 201.281Z" fill="#00160A"/>
<path fill-rule="evenodd" clip-rule="evenodd" d="M166.657 251.905C167.683 249.586 170.073 247.929 172.612 247.777C173.272 247.738 174.021 247.835 174.424 248.357C174.827 248.879 174.481 249.871 173.825 249.786C172.252 249.58 170.681 250.379 169.577 251.515C168.473 252.651 167.753 254.094 167.05 255.511C166.04 254.687 166.13 253.095 166.657 251.905Z" fill="#00160A"/>
<path fill-rule="evenodd" clip-rule="evenodd" d="M278.777 30.0414C280.068 30.1632 281.263 29.4179 282.332 28.6885C285.306 26.6595 288.508 23.894 288.313 20.3072C288.251 19.1682 287.839 18.0965 287.427 17.0235C287.251 16.5644 287.074 16.105 286.925 15.64C286.146 13.2116 286.117 10.6512 286.088 8.08416C286.064 5.97865 286.04 3.86866 285.602 1.82347C285.445 1.09003 285.131 0.256854 284.409 0.048254C284.001 -0.0692648 283.568 0.0501392 283.161 0.169135L270.172 3.96917C267.727 4.68452 267.203 7.84963 267.133 10.3892L266.942 17.2992C266.17 17.3957 265.438 17.094 264.705 16.7923C264.425 16.6771 264.145 16.562 263.864 16.469C261.088 15.5531 257.732 17.093 256.624 19.7905C255.517 22.488 256.826 25.9326 259.449 27.2199C262.072 28.5071 265.609 27.4415 267.077 24.9214C268.075 23.2103 268.134 21.1325 268.167 19.1535L268.228 15.4377C268.251 14.0489 269.814 13.2788 271.135 12.8373C275.203 11.4775 279.309 10.2294 283.446 9.09492C283.855 8.9828 284.363 8.89869 284.642 9.21671C284.793 9.38858 284.826 9.63065 284.852 9.85754L285.418 14.7225C285.502 15.444 285.421 16.4142 284.709 16.5672C281.27 17.3058 278.212 19.6476 276.61 22.7704C275.928 24.1008 275.497 25.6285 275.799 27.0925C276.101 28.556 277.285 29.9014 278.777 30.0414ZM284.031 2.21255C284.176 2.35946 284.218 2.5759 284.253 2.7789L284.648 5.0626C284.752 5.66583 284.85 6.31379 284.588 6.86745C284.173 7.7421 283.072 8.00525 282.116 8.19317C279.908 8.62728 277.729 9.20337 275.597 9.91663C273.814 10.5128 272.066 11.204 270.319 11.895C270.171 11.9534 270.023 12.0117 269.876 12.0701C269.461 12.2338 268.889 12.3519 268.652 11.977C268.592 11.8831 268.567 11.7721 268.547 11.663C268.13 9.44854 269.156 7.03301 271.045 5.78253C272.085 5.09382 273.315 4.75594 274.52 4.42854L282.999 2.12697C283.349 2.03186 283.777 1.95535 284.031 2.21255ZM266.926 20.4235C266.89 22.5639 266.372 25.0111 264.469 26.0472C262.958 26.8689 260.985 26.4741 259.615 25.4415C258.005 24.2295 257.121 21.8155 258.298 20.1912C258.788 19.5147 259.554 19.0762 260.346 18.7893C262.166 18.1303 264.246 18.1965 266.019 18.97C266.302 19.0934 266.591 19.246 266.755 19.5045C266.925 19.7726 266.931 20.1076 266.926 20.4235ZM39.9889 25.2062C40.209 25.8817 41.1672 25.8557 41.861 25.6932L48.1699 24.218C47.9942 22.5801 47.6748 20.9574 47.2173 19.3745C47.0823 18.908 46.9198 18.42 46.5526 18.1007C45.9846 17.6062 45.1339 17.6747 44.3856 17.7717L34.6957 19.0286C34.03 19.1149 33.1421 19.5459 33.3958 20.165C35.6137 25.5883 37.3635 31.2024 38.6192 36.924C38.8591 38.0182 38.8188 39.555 37.7206 39.7955C34.5399 40.4903 31.8181 42.9782 30.8493 46.0754C30.5513 47.0284 30.4158 48.087 30.8014 49.008C31.0102 49.5072 31.3612 49.9366 31.754 50.3095C33.6408 52.1005 36.6493 52.5982 39.0155 51.5117C41.3816 50.4246 42.9557 47.8216 42.8141 45.2292C42.7606 44.2502 42.487 43.2976 42.2155 42.3552L36.0212 20.8698L44.2226 20.2285C45.0468 20.2746 45.3947 21.4409 44.9592 22.1393C44.5241 22.8377 43.6597 23.1283 42.8508 23.2904C42.7341 23.3137 42.6164 23.3358 42.4988 23.3579C41.7978 23.4895 41.0847 23.6233 40.5162 24.0411C40.1484 24.3114 39.8478 24.7727 39.9889 25.2062Z" fill="#F7941E"/>
<path fill-rule="evenodd" clip-rule="evenodd" d="M165.305 244.955C165.059 245.274 164.503 245.183 164.266 244.858C164.029 244.532 164.05 244.081 164.179 243.7C164.41 243.017 164.934 242.475 165.483 242.005C166.863 240.827 168.504 239.956 170.256 239.473C170.946 239.282 171.751 239.172 172.323 239.602C172.894 240.033 172.802 241.181 172.089 241.245C169.445 241.481 166.924 242.86 165.305 244.955Z" fill="#00160A"/>
</svg>
